<svg xmlns="http://www.w3.org/2000/svg" width="55.272" height="47.726" viewBox="0 0 55.272 47.726">
    <g>
        <path fill="#3eb4ba" d="M0 6.529A20.056 20.056 0 0 1 1.085 0a20.1 20.1 0 0 1 14.881 19.405 20.059 20.059 0 0 1-1.085 6.53A20.1 20.1 0 0 1 0 6.529z" transform="translate(-678.169 -48.322) translate(688.897 48.322)"/>
        <path fill="#f15b9a" d="M0 6.529A20.056 20.056 0 0 1 1.085 0a20.1 20.1 0 0 1 14.881 19.405 20.059 20.059 0 0 1-1.085 6.53A20.1 20.1 0 0 1 0 6.529z" transform="translate(-678.169 -48.322) rotate(-105.01 377.963 -213.712)"/>
        <path fill="#feb161" d="M0 6.529A20.056 20.056 0 0 1 1.085 0a20.1 20.1 0 0 1 14.881 19.405 20.059 20.059 0 0 1-1.085 6.53A20.1 20.1 0 0 1 0 6.529z" transform="translate(-678.169 -48.322) rotate(-47 438.951 -771.168)"/>
    </g>
</svg>
