<svg id="Layer_1" data-name="Layer 1" xmlns="http://www.w3.org/2000/svg" viewBox="0 0 148.18 148.18"><defs><style>.cls-1,.cls-2{fill:none;stroke:#000;stroke-linecap:round;stroke-width:5px;}.cls-1{stroke-miterlimit:10;}.cls-2{stroke-linejoin:round;}</style></defs><path class="cls-1" d="M529.16,381.18V308.81a9,9,0,0,1,2.59-6.26A8.8,8.8,0,0,1,538,300H634a8.86,8.86,0,0,1,8.85,8.86v82.82" transform="translate(-511.89 -282.5)"/><path class="cls-1" d="M621,413.6H538a9.06,9.06,0,0,1-6.26-2.59,8.85,8.85,0,0,1-2.59-6.26v-9.47" transform="translate(-511.89 -282.5)"/><path class="cls-1" d="M615.89,356.78A29.91,29.91,0,1,1,586,326.87a31.3,31.3,0,0,1,14.86,4.26" transform="translate(-511.89 -282.5)"/><polyline class="cls-2" points="56.76 70.72 71.72 86.86 102.34 57.14"/><line class="cls-1" x1="32.22" y1="29.42" x2="53.15" y2="29.42"/><rect class="cls-1" x="2.5" y="2.5" width="143.18" height="143.18" rx="10.66"/><line class="cls-1" x1="32.22" y1="38.39" x2="44.18" y2="38.39"/></svg>