<svg id="Layer_1" data-name="Layer 1" xmlns="http://www.w3.org/2000/svg" viewBox="0 0 196.75 196.75"><defs><style>.cls-1{fill:none;stroke:#000;stroke-linecap:round;stroke-linejoin:round;stroke-width:5px;}</style></defs><rect class="cls-1" x="2.5" y="2.5" width="191.75" height="191.75" rx="14.16"/><path class="cls-1" d="M1144.58,362.87a42.48,42.48,0,0,1-23.58,8c-17.11.07-40.13-15.36-40.13-40.13a40.13,40.13,0,0,1,80.26,0,37.07,37.07,0,0,1-3.13,15.56" transform="translate(-1022.62 -232.34)"/><polyline class="cls-1" points="98.5 78.5 98.5 98.38 118.71 98.38"/><circle cx="70.5" cy="98.38" r="1.29"/><circle cx="126.5" cy="98.5" r="1.29"/><circle cx="98.5" cy="70.5" r="1.29"/><circle cx="98.5" cy="126.25" r="1.29"/><path d="M1068.78,264.34h18a2.5,2.5,0,0,1,2.5,2.5h0a2.5,2.5,0,0,1-2.5,2.5h-18.44a8.6,8.6,0,0,0-6.15,2.55,8.9,8.9,0,0,0-2.55,6.15v.3c0,.39,0,1.19,0,5.64a2.51,2.51,0,0,1-2.49,2.51h0a2.5,2.5,0,0,1-2.5-2.49c0-4.51,0-5.32,0-5.72V278a13.83,13.83,0,0,1,4.17-9.85A14.28,14.28,0,0,1,1068.78,264.34Z" transform="translate(-1022.62 -232.34)"/><rect x="74.36" y="32" width="48.28" height="5" rx="2.5"/><path d="M1187.63,278.35V338.5a2.5,2.5,0,0,1-2.5,2.5h0a2.5,2.5,0,0,1-2.5-2.5V278.35a9,9,0,0,0-9-9h-18.13a2.5,2.5,0,1,1,0-5h18.12A14.06,14.06,0,0,1,1187.63,278.35Z" transform="translate(-1022.62 -232.34)"/><path d="M1185.13,373h0a2.5,2.5,0,0,1,2.5,2.5v8.14a13.7,13.7,0,0,1-13.7,13.7h-105.6a13.71,13.71,0,0,1-13.7-13.7V349.26c0-23.21,0-45.64,0-53.09a2.5,2.5,0,0,1,5,0c0,7.45,0,29.88,0,53.08v34.38a8.71,8.71,0,0,0,8.7,8.7h105.28a9,9,0,0,0,9-9V375.5A2.5,2.5,0,0,1,1185.13,373Z" transform="translate(-1022.62 -232.34)"/><line class="cls-1" x1="70.5" y1="22.5" x2="70.5" y2="46.5"/><line class="cls-1" x1="126.5" y1="22.5" x2="126.5" y2="46.5"/><path class="cls-1" d="M1170.46,350.08a32.07,32.07,0,0,1-32.07,32.07" transform="translate(-1022.62 -232.34)"/></svg>