<svg id="Layer_1" data-name="Layer 1" xmlns="http://www.w3.org/2000/svg" viewBox="0 0 196.75 196.75"><defs><style>.cls-1,.cls-2,.cls-3,.cls-4,.cls-5{fill:none;stroke:#000;}.cls-1,.cls-2,.cls-3,.cls-4{stroke-linecap:round;}.cls-1,.cls-5{stroke-miterlimit:10;}.cls-1{stroke-width:5px;}.cls-2,.cls-3,.cls-4{stroke-linejoin:round;}.cls-3{stroke-width:2px;}.cls-4{stroke-width:0.75px;}</style></defs><rect class="cls-1" x="2.5" y="2.5" width="191.75" height="191.75" rx="19.21"/><path class="cls-1" d="M1141.16,468.66c0,.31.07,3.68,0,6.95v.14a9.5,9.5,0,0,1-1.57,5.12c-1.94,2.48-5.62,2.31-6,2.29h-112.9a7.55,7.55,0,0,1-7.55-7.55v-36.9a7.55,7.55,0,0,1,7.55-7.55h112.9a7.55,7.55,0,0,1,7.55,7.55v16.13" transform="translate(-978.91 -396.91)"/><path class="cls-2" d="M1073.18,453.12v8.09a.52.52,0,0,0,.78.44l6.93-4.09a.52.52,0,0,0,0-.89l-6.93-4A.51.51,0,0,0,1073.18,453.12Z" transform="translate(-978.91 -396.91)"/><path d="M1101.87,543.89v10.43a11.36,11.36,0,0,1-1.46,5.59,11.61,11.61,0,0,1-1.54,2.12,11.42,11.42,0,0,1-8.39,3.69H1064a11.38,11.38,0,0,1-11.39-11.4V543.89a20.42,20.42,0,0,1,17.22-20.15,19.71,19.71,0,0,1,3.19-.25h8.5a19.89,19.89,0,0,1,3.19.25,20.16,20.16,0,0,1,11.23,5.73,1.23,1.23,0,0,1,0,1.75,1.24,1.24,0,0,1-1.75,0,17.82,17.82,0,0,0-12.67-5.25H1073A17.94,17.94,0,0,0,1055,543.89v10.43a8.92,8.92,0,0,0,8.91,8.91h26.53a8.88,8.88,0,0,0,7.06-3.49,8.79,8.79,0,0,0,1.79-4.43,8.1,8.1,0,0,0,.06-1V543.89a16.86,16.86,0,0,0-.35-3.51c0-.17-.07-.35-.11-.53a1.24,1.24,0,0,1,.93-1.49,1.32,1.32,0,0,1,.56,0,1.23,1.23,0,0,1,.93.93q.2.84.3,1.59A19.79,19.79,0,0,1,1101.87,543.89Z" transform="translate(-978.91 -396.91)"/><path d="M1077.21,498.87a13.55,13.55,0,1,0,13.56,13.55A13.57,13.57,0,0,0,1077.21,498.87Zm0,24.62a11.07,11.07,0,1,1,11.07-11.07A11.09,11.09,0,0,1,1077.21,523.49Z" transform="translate(-978.91 -396.91)"/><path d="M1099.39,543.89a16.86,16.86,0,0,0-.35-3.51,16.37,16.37,0,0,1,1.38-2,16.2,16.2,0,0,1,9.38-5.7,16.62,16.62,0,0,1,3.17-.31h6.61a16.46,16.46,0,0,1,3.17.31h0a16,16,0,0,1,8.23,4.42,1.23,1.23,0,0,1,0,1.75,1.24,1.24,0,0,1-1.75,0,13.57,13.57,0,0,0-9.66-4H1113a13.65,13.65,0,0,0-13.58,12.46Z" transform="translate(-978.91 -396.91)"/><path d="M1135.72,548.48v7.68a9.57,9.57,0,0,1-9.56,9.56H1106.4a9.5,9.5,0,0,1-7.53-3.69,9,9,0,0,1-1.33-2.29,8.79,8.79,0,0,0,1.79-4.43v.85a7.08,7.08,0,0,0,7.07,7.07h19.76a7.08,7.08,0,0,0,7.07-7.07v-7.68a13.53,13.53,0,0,0-.34-3.08,1.24,1.24,0,1,1,2.41-.56A15.16,15.16,0,0,1,1135.72,548.48Z" transform="translate(-978.91 -396.91)"/><path d="M1116.28,513.22a10.8,10.8,0,0,0-6.48,19.44,10.75,10.75,0,0,0,13,0h0a10.8,10.8,0,0,0-6.48-19.44Zm0,19.13a8.33,8.33,0,1,1,8.33-8.32A8.33,8.33,0,0,1,1116.28,532.35Z" transform="translate(-978.91 -396.91)"/><path d="M1056.82,559.66a9.25,9.25,0,0,1-1.31,2.31,9.49,9.49,0,0,1-7.56,3.75h-19.83a9.54,9.54,0,0,1-9.52-9.53v-7.71a16.16,16.16,0,0,1,13-15.82,16.62,16.62,0,0,1,3.17-.31h6.61a16.81,16.81,0,0,1,3.18.31,16.07,16.07,0,0,1,8.23,4.42,1.23,1.23,0,0,1,0,1.75,1.26,1.26,0,0,1-1.76,0,13.53,13.53,0,0,0-9.65-4h-6.61a13.66,13.66,0,0,0-13.64,13.65v7.71a7,7,0,0,0,7,7H1048a7,7,0,0,0,6-3.4,7,7,0,0,0,1-3.64v-7.71a13.16,13.16,0,0,0-.35-3.08,1.25,1.25,0,0,1,.4-1.22v10.14A8.86,8.86,0,0,0,1056.82,559.66Z" transform="translate(-978.91 -396.91)"/><path d="M1038,513.22a10.8,10.8,0,0,0-6.48,19.44,10.81,10.81,0,0,0,17.29-8.63A10.82,10.82,0,0,0,1038,513.22Zm0,19.13a8.33,8.33,0,1,1,8.32-8.32A8.33,8.33,0,0,1,1038,532.35Z" transform="translate(-978.91 -396.91)"/><circle class="cls-3" cx="96.67" cy="60.23" r="12.7"/><line class="cls-3" x1="47.27" y1="45.34" x2="63.34" y2="45.34"/><line class="cls-3" x1="47.27" y1="49.95" x2="57.07" y2="49.95"/><line class="cls-4" x1="154.52" y1="104.27" x2="164.09" y2="104.27"/><line class="cls-4" x1="154.52" y1="107.01" x2="160.36" y2="107.01"/><path class="cls-5" d="M1146,500.12v6.12a2,2,0,0,1-2,2.05h-11.8l-4.44,1.32,1.79-4.8v-4.69a2,2,0,0,1,2-2H1144A2,2,0,0,1,1146,500.12Z" transform="translate(-978.91 -396.91)"/></svg>